<?xml version="1.0" encoding="utf-8"?>
<!-- Generator: Adobe Illustrator 23.1.1, SVG Export Plug-In . SVG Version: 6.00 Build 0)  -->
<svg version="1.1" id="Layer_1" xmlns="http://www.w3.org/2000/svg" xmlns:xlink="http://www.w3.org/1999/xlink" x="0px" y="0px"
	 viewBox="0 0 26.2 38.1" style="enable-background:new 0 0 26.2 38.1;" xml:space="preserve">
<style type="text/css">
	.st0{fill:#010101;}
</style>
<path class="st0" d="M25.5,0H9.3C9,0,8.7,0.1,8.3,0.4L0.2,8.6C0.1,8.6,0,8.8,0,9v28.6c0,0.3,0.3,0.5,0.5,0.5c0.2,0,0.5-0.3,0.5-0.5
	V9.5h7.4v19.7c0,0.3,0.3,0.5,0.5,0.5c0.3,0,0.5-0.3,0.5-0.5V9.5h7.4v11c0,0.3,0.3,0.5,0.5,0.5c0.3,0,0.5-0.3,0.5-0.5V9.2l7.4-7.4
	v10.3c0,0.3,0.3,0.5,0.5,0.5c0.3,0,0.5-0.3,0.5-0.5V0.9C26.2,0.6,26,0,25.5,0z M17.2,8.5H1.8L9.2,1h15.4L17.2,8.5z"/>
</svg>
