<?xml version="1.0" encoding="utf-8"?>
<!-- Generator: Adobe Illustrator 23.1.1, SVG Export Plug-In . SVG Version: 6.00 Build 0)  -->
<svg version="1.1" id="Layer_1" xmlns="http://www.w3.org/2000/svg" xmlns:xlink="http://www.w3.org/1999/xlink" x="0px" y="0px"
	 viewBox="0 0 28.2 40.1" style="enable-background:new 0 0 28.2 40.1;" xml:space="preserve">
<g>
	<path d="M26.5,0H10.3C9.6,0,9.1,0.3,8.6,0.6L0.4,8.8C0.2,9.1,0,9.6,0,10v28.6c0,0.8,0.7,1.5,1.5,1.5c0.8,0,1.5-0.7,1.5-1.5V11.5
		h5.4v18.7c0,0.8,0.7,1.5,1.5,1.5s1.5-0.7,1.5-1.5V11.5h5.4v10c0,0.8,0.7,1.5,1.5,1.5s1.5-0.7,1.5-1.5V10.6l5.4-5.4v7.9
		c0,0.8,0.7,1.5,1.5,1.5s1.5-0.7,1.5-1.5V1.9C28.2,1,27.6,0,26.5,0z M26.2,13.1V2.8l-7.4,7.4v11.3c0,0.2-0.2,0.5-0.5,0.5
		c-0.2,0-0.5-0.2-0.5-0.5v-11h-7.4v19.7c0,0.2-0.2,0.5-0.5,0.5c-0.2,0-0.5-0.2-0.5-0.5V10.5H2v28.1c0,0.2-0.3,0.5-0.5,0.5
		c-0.2,0-0.5-0.2-0.5-0.5V10c0-0.2,0.1-0.4,0.2-0.4l8.1-8.2C9.7,1.1,10,1,10.3,1h16.2c0.5,0,0.7,0.6,0.7,0.9v11.2
		c0,0.2-0.2,0.5-0.5,0.5C26.5,13.6,26.2,13.4,26.2,13.1z"/>
	<path d="M2.8,9.5h15.4L25.6,2H10.2L2.8,9.5z M23.2,3l-5.4,5.5H5.2L10.6,3H23.2z"/>
</g>
</svg>
