<?xml version="1.0" encoding="utf-8"?>
<!-- Generator: Adobe Illustrator 23.1.1, SVG Export Plug-In . SVG Version: 6.00 Build 0)  -->
<svg version="1.1" id="Layer_1" xmlns="http://www.w3.org/2000/svg" xmlns:xlink="http://www.w3.org/1999/xlink" x="0px" y="0px"
	 viewBox="0 0 27.4 39.2" style="enable-background:new 0 0 27.4 39.2;" xml:space="preserve">
<g>
	<path d="M26,0H9.8C9.3,0,8.9,0.2,8.5,0.5L0.3,8.7C0.1,8.9,0,9.2,0,9.5l0,28.6c0,0.6,0.5,1,1,1s1-0.5,1-1V10.5h6.4v19.2
		c0,0.6,0.5,1,1,1c0.6,0,1-0.5,1-1V10.5h6.4V21c0,0.6,0.5,1,1,1c0.6,0,1-0.5,1-1V9.9l6.4-6.4v9.1c0,0.6,0.5,1,1,1c0.6,0,1-0.5,1-1
		V1.4C27.4,0.6,26.8,0,26,0z M17.5,8.5h-14L9.9,2h14L17.5,8.5z"/>
</g>
</svg>
